HIERARCHY
ROOT Hips
{
	OFFSET -3.958830 18.904000 13.208200
	CHANNELS 6 Xposition Yposition Zposition Zrotation Yrotation Xrotation 
	JOINT LHipJoint
	{
		OFFSET 0.000000 0.000000 0.000000
		CHANNELS 3 Zrotation Yrotation Xrotation
		JOINT LeftUpLeg
		{
			OFFSET 1.800000 -1.400000 0.085000
			CHANNELS 3 Zrotation Yrotation Xrotation
			JOINT LeftLeg
			{
				OFFSET 2.215000 -6.000000 0.000000
				CHANNELS 3 Zrotation Yrotation Xrotation
				JOINT LeftFoot
				{
					OFFSET 2.500000 -6.900000 0.000000
					CHANNELS 3 Zrotation Yrotation Xrotation
					JOINT LeftToeBase
					{
						OFFSET 0.200000 -0.500000 1.950000
						CHANNELS 3 Zrotation Yrotation Xrotation
						End Site
						{
							OFFSET 0.000000 0.000000 0.000000
						}
					}
				}
			}
		}
	}
	JOINT RHipJoint
	{
		OFFSET 0.000000 0.000000 0.000000
		CHANNELS 3 Zrotation Yrotation Xrotation
		JOINT RightUpLeg
		{
			OFFSET -1.800000 -1.400000 0.085000
			CHANNELS 3 Zrotation Yrotation Xrotation
			JOINT RightLeg
			{
				OFFSET -2.215000 -6.000000 0.000000
				CHANNELS 3 Zrotation Yrotation Xrotation
				JOINT RightFoot
				{
					OFFSET -2.500000 -6.900000 0.000000
					CHANNELS 3 Zrotation Yrotation Xrotation
					JOINT RightToeBase
					{
						OFFSET -0.200000 -0.500000 1.950000
						CHANNELS 3 Zrotation Yrotation Xrotation
						End Site
						{
							OFFSET 0.000000 0.000000 0.000000
						}
					}
				}
			}
		}
	}
	JOINT LowerBack
	{
		OFFSET 0.000000 0.000000 0.000000
		CHANNELS 3 Zrotation Yrotation Xrotation
		JOINT Spine
		{
			OFFSET -0.087000 1.940000 -0.288900
			CHANNELS 3 Zrotation Yrotation Xrotation
			JOINT Spine1
			{
				OFFSET 0.000000 1.950000 0.060000
				CHANNELS 3 Zrotation Yrotation Xrotation
				JOINT Neck
				{
					OFFSET 0.000000 0.000000 0.000000
					CHANNELS 3 Zrotation Yrotation Xrotation
					JOINT Neck1
					{
						OFFSET 0.000000 1.600000 0.340000
						CHANNELS 3 Zrotation Yrotation Xrotation
						JOINT Head
						{
							OFFSET 0.000000 1.667000 -0.240000
							CHANNELS 3 Zrotation Yrotation Xrotation
							End Site
							{
								OFFSET 0.000000 0.000000 0.000000
							}
						}
					}
				}
				JOINT LeftShoulder
				{
					OFFSET 0.000000 0.000000 0.000000
					CHANNELS 3 Zrotation Yrotation Xrotation
					JOINT LeftArm
					{
						OFFSET 2.700000 1.550000 -0.730000
						CHANNELS 3 Zrotation Yrotation Xrotation
						JOINT LeftForeArm
						{
							OFFSET 5.450000 0.000000 0.000000
							CHANNELS 3 Zrotation Yrotation Xrotation
							JOINT LeftHand
							{
								OFFSET 3.450000 0.000000 0.000000
								CHANNELS 3 Zrotation Yrotation Xrotation
								JOINT LeftHandIndex1
								{
									OFFSET 0.750000 0.000000 0.000000
									CHANNELS 3 Zrotation Yrotation Xrotation
									End Site
									{
										OFFSET 0.000000 0.000000 0.000000
									}
								}
							}
						}
					}
				}
				JOINT RightShoulder
				{
					OFFSET 0.000000 0.000000 0.000000
					CHANNELS 3 Zrotation Yrotation Xrotation
					JOINT RightArm
					{
						OFFSET -2.700000 1.550000 -0.730000
						CHANNELS 3 Zrotation Yrotation Xrotation
						JOINT RightForeArm
						{
							OFFSET -5.450000 0.000000 0.000000
							CHANNELS 3 Zrotation Yrotation Xrotation
							JOINT RightHand
							{
								OFFSET -3.450000 0.000000 0.000000
								CHANNELS 3 Zrotation Yrotation Xrotation
								JOINT RightHandIndex1
								{
									OFFSET -0.750000 0.000000 0.000000
									CHANNELS 3 Zrotation Yrotation Xrotation
									End Site
									{
										OFFSET 0.000000 0.000000 0.000000
									}
								}
							}
						}
					}
				}
			}
		}
	}
}
MOTION
Frames: 9
Frame Time: 0.016667
-1.499830 17.884530 0.273600 -18.672278 -0.322666 -36.665003 -14.725319 11.195863 0.150506 11.867374 -0.735404 -10.011612 9.201181 4.700666 39.431440 -0.415314 6.735293 1.991086 0.255260 0.165760 0.062860 19.592968 -7.314863 8.900367 -38.273847 12.039952 -86.575328 54.742922 -30.511693 44.344266 -2.401484 -12.022459 0.203596 0.193130 0.298760 0.284150 -5.951574 0.900662 -9.011183 37.405878 -25.565946 53.157676 -24.558985 -6.479948 16.937015 5.192999 -9.210594 -11.576436 -26.165986 10.395112 47.554374 2.122870 -4.187020 -18.920660 7.967391 -42.367528 2.937876 11.711501 -21.763583 -21.433875 69.671785 -51.841187 -35.404292 -4.349745 2.605438 0.631150 -0.018400 0.157710 0.018890 -18.259910 41.367307 -2.600189 -10.491711 22.732246 -26.203992 -81.618507 52.118972 -43.647890 2.409715 -1.023394 -0.215020 0.404660 0.304660 0.007010 
-1.505720 17.955110 0.213280 -19.022476 -0.739760 -34.744857 -14.721498 11.017965 0.029602 13.128645 -0.403119 -10.445278 7.394443 5.137154 35.630326 -0.575752 6.309296 2.183071 0.139850 0.009560 -0.036880 19.653564 -7.165855 9.137303 -40.930233 10.279892 -90.024017 62.477940 -33.176341 41.874341 -2.485806 -12.376824 0.166017 0.154730 0.440680 0.275360 -6.046830 1.084617 -9.090833 39.446472 -25.939189 51.608560 -25.356557 -5.554961 17.009961 5.328707 -9.139598 -11.523353 -25.417764 9.990148 46.595894 2.627790 -4.645620 -15.122470 9.644442 -41.443119 3.469624 12.400512 -20.748592 -20.967745 70.985592 -49.699499 -34.891338 -4.437098 2.584931 0.586550 0.081500 0.036350 0.013680 -20.241187 40.501793 -3.587637 -13.560095 22.325107 -25.769915 -78.893314 51.361772 -40.412818 2.438012 -1.139486 -0.300360 0.437750 0.387500 0.008620 
-1.514660 18.085110 0.108490 -19.575402 0.870795 -33.091197 -14.730938 10.800134 -0.034229 13.396076 -0.507671 -11.767586 6.080309 4.970040 31.943775 -0.663426 5.743987 2.420358 0.059970 -0.088210 -0.105270 19.703470 -7.009715 9.278794 -42.032952 6.866103 -93.696196 72.972679 -40.187209 41.079780 -2.768003 -13.190194 0.030926 0.105130 0.518690 0.283240 -6.075882 1.122017 -9.227997 41.501402 -27.552682 50.012775 -27.147204 -5.019048 16.324757 6.103530 -8.659779 -11.246739 -23.746272 9.535903 47.392920 2.442630 -4.670980 -11.942370 10.653480 -39.662118 4.325673 14.720432 -19.634275 -19.573844 71.617706 -48.758296 -34.073658 -4.354934 2.548657 0.539500 0.142640 -0.023810 0.022500 -22.771027 38.727671 -4.976970 -16.453114 23.190226 -24.583524 -76.803445 49.791089 -37.436401 2.499160 -1.246321 -0.323740 0.429100 0.420860 0.024000 
-1.521720 18.249020 -0.004650 -19.611862 2.687691 -30.140697 -14.732362 10.528629 -0.061584 12.525650 -0.378262 -14.304853 5.607540 4.467153 27.735657 -0.770837 4.989089 2.743261 0.057540 -0.077250 -0.153540 19.766181 -6.923234 9.387127 -43.686681 4.123001 -96.479244 80.090535 -46.083319 40.396354 -2.912127 -13.564207 0.001201 0.133660 0.602250 0.269310 -6.147635 1.299363 -9.350183 44.122858 -27.565052 46.927889 -28.387332 -4.036613 16.412413 6.482731 -8.262958 -10.300599 -21.942560 7.855546 46.849261 3.022100 -5.970600 -10.021780 12.535247 -36.661848 4.608434 14.318836 -20.742203 -17.779394 74.734042 -47.524012 -35.649166 -4.220162 2.492395 0.461090 0.199150 -0.087770 0.077760 -25.378436 35.865856 -6.484349 -18.024060 24.697111 -22.886926 -73.386870 48.451654 -34.528932 2.509473 -1.398474 -0.337370 0.459630 0.405850 0.060710 
-1.535810 18.409640 -0.122110 -17.849167 3.729196 -26.728094 -14.713523 10.183907 0.083188 10.377783 -0.740949 -18.080766 5.234228 4.230398 26.413398 -0.804041 4.571119 2.930598 0.022090 -0.073960 -0.258090 19.828279 -6.891122 9.419499 -43.581181 4.712037 -100.776657 79.346263 -52.326023 45.274481 -3.104449 -14.376367 -0.106936 0.147720 0.714130 0.227360 -6.264794 1.631595 -9.473458 44.511388 -26.181313 45.448123 -29.374087 -2.650142 15.607348 6.240233 -8.088104 -9.500355 -21.025935 7.221149 46.667637 5.191820 -7.261290 -8.563390 13.574198 -33.624281 4.646280 13.699288 -22.411481 -15.706627 78.197264 -48.092265 -38.593101 -4.064880 2.350497 0.384650 0.255910 -0.163650 0.129110 -26.018422 33.341708 -7.087315 -19.340355 26.831449 -21.303326 -75.484000 47.798158 -35.491980 2.440767 -1.358153 -0.358850 0.521040 0.414830 0.118030 
-1.565040 18.584790 -0.254870 -18.639189 9.425789 -26.877166 -14.780396 10.067499 0.335139 7.908217 -2.079490 -21.637568 7.515656 3.134769 28.103256 -0.752145 4.496638 2.973699 -0.007260 -0.082630 -0.285360 19.774959 -6.774350 9.196374 -42.347455 1.140555 -97.035210 81.703008 -58.156624 46.693541 -3.113808 -14.200737 -0.020854 0.121700 0.734620 0.205780 -6.083801 1.164615 -9.612482 45.177019 -27.790807 44.869767 -28.755509 -3.549704 14.818910 6.502509 -7.113986 -8.984382 -19.645055 5.802118 48.646557 5.199160 -8.631750 -7.993410 13.322865 -33.102176 3.909845 14.309381 -24.635784 -15.065496 76.799783 -51.290241 -39.121867 -3.989356 2.207124 0.358550 0.260010 -0.164450 0.144040 -26.324858 32.161379 -6.539889 -21.553695 26.400641 -20.784625 -78.164438 49.086029 -37.592128 2.332350 -1.243285 -0.350340 0.546290 0.405750 0.146550 
-1.648150 18.783570 -0.440860 -19.478088 11.275995 -26.610273 -14.781503 9.821783 0.725122 8.711838 -2.913714 -26.607068 8.221930 3.273441 32.365270 -0.516721 4.894284 2.756287 0.185350 0.166920 -0.191460 19.738649 -6.853657 8.855934 -39.714197 2.808047 -92.659413 78.062692 -64.450463 51.934461 -3.372329 -14.619664 -0.105431 0.184050 0.558790 0.223020 -6.040462 1.276001 -9.759458 46.660187 -29.040496 46.115361 -30.079377 -3.268968 14.268933 7.272336 -5.968440 -9.062869 -18.299346 4.166063 51.358113 6.826350 -10.380310 -9.612970 13.726346 -33.586426 3.228997 15.282215 -24.908777 -15.928482 74.748953 -55.787908 -39.914672 -3.687669 2.249975 0.340170 0.134820 -0.032280 0.228790 -28.307362 32.195082 -7.467884 -20.463313 23.838041 -21.540743 -77.294359 52.460868 -38.468872 2.526527 -1.428411 -0.188900 0.435600 0.225750 0.193990 
-1.778570 18.907880 -0.629130 -18.103962 12.528759 -25.420483 -14.838996 9.480597 1.596447 8.827988 -4.712920 -33.461310 8.813705 4.041833 40.796708 -0.253746 6.303999 2.194424 0.170090 0.153640 -0.186380 19.615734 -6.664728 8.386369 -36.406191 7.347522 -87.747172 58.521513 -69.809592 72.002869 -4.059222 -17.358966 -0.669630 0.134200 0.488740 0.201020 -5.788608 0.966812 -10.000796 42.286200 -27.121030 50.158237 -26.958790 -3.429983 12.867442 7.009744 -5.258328 -9.847689 -18.038987 4.148788 55.090422 8.747020 -11.227740 -10.897150 14.477050 -34.724697 3.196574 14.582002 -23.559022 -16.673100 74.345031 -57.689241 -40.710576 -3.644232 2.229559 0.408510 0.058180 0.030200 0.204070 -28.506483 33.756108 -6.844706 -23.352278 22.301200 -22.786276 -73.335327 54.471411 -35.842386 2.588066 -1.391349 -0.170140 0.422810 0.221560 0.186510 
-1.906430 19.043840 -0.824560 -15.230353 14.310667 -24.631584 -14.879020 9.071182 2.537991 8.536968 -7.107742 -38.988607 8.329453 5.291031 49.548993 -0.082648 8.138292 1.590080 0.033590 -0.033050 -0.249860 19.490163 -6.636375 7.709088 -31.482472 12.400564 -79.629795 29.936340 -66.945527 99.420742 -4.922065 -22.113103 -1.565542 0.106620 0.626680 0.131030 -5.587301 0.909554 -10.194040 36.156952 -24.461380 54.439285 -23.952207 -4.298434 13.019734 6.176579 -4.779538 -9.016389 -16.218159 3.887733 54.879095 10.437690 -11.468650 -10.350810 15.037287 -35.583726 2.264392 15.451166 -23.015055 -17.737130 71.215212 -59.847233 -39.746976 -3.776728 2.094421 0.453420 0.116970 -0.081980 0.141190 -27.285732 34.005185 -5.909386 -25.912709 22.205975 -23.372745 -70.307858 55.664277 -34.114945 2.411634 -1.216829 -0.332510 0.558030 0.351180 0.141630 
